<?xml version="1.0" encoding="UTF-8"?>
<svg width="32" height="32" viewBox="0 0 32 32" fill="none" xmlns="http://www.w3.org/2000/svg">
  <rect width="32" height="32" rx="6" fill="#FF1493"/>
  <path d="M16 8C14.5 8 13 9 13 11V15C13 16.5 14.5 17.5 16 17.5C17.5 17.5 19 16.5 19 15V11C19 9 17.5 8 16 8Z" fill="white"/>
  <path d="M22 15C22 18.5 19.5 22 16 22C12.5 22 10 18.5 10 15" stroke="white" stroke-width="2" stroke-linecap="round"/>
  <path d="M20 20C20 21.5 18.5 23 16 23C13.5 23 12 21.5 12 20" stroke="white" stroke-width="2" stroke-linecap="round"/>
</svg>
