<?xml version="1.0" encoding="UTF-8"?>
<svg width="32" height="32" viewBox="0 0 32 32" fill="none" xmlns="http://www.w3.org/2000/svg">
  <!-- Background with smooth corners -->
  <rect width="32" height="32" rx="8" fill="#FF1493"/>
  <!-- Headphones with smooth curves -->
  <path d="M10 16C10 12.13 13.13 9 17 9C20.87 9 24 12.13 24 16V21C24 21.55 23.55 22 23 22H21C20.45 22 20 21.55 20 21V17C20 16.45 20.45 16 21 16H25C25 11.03 21.2 7 16.5 7C11.8 7 8 11.03 8 16H11C11.55 16 12 16.45 12 17V21C12 21.55 11.55 22 11 22H9C8.45 22 8 21.55 8 21V16Z" 
        fill="white" 
        stroke="white" 
        stroke-width="0.5" 
        stroke-linecap="round" 
        stroke-linejoin="round"/>
</svg>
